<svg xmlns="http://www.w3.org/2000/svg" viewBox="0 0 900 500" width="900" height="500">
  <defs>
    <linearGradient id="bg1" x1="0%" y1="0%" x2="100%" y2="100%">
      <stop offset="0%" style="stop-color:#1a1a2e"/>
      <stop offset="100%" style="stop-color:#16213e"/>
    </linearGradient>
    <linearGradient id="orange1" x1="0%" y1="0%" x2="100%" y2="0%">
      <stop offset="0%" style="stop-color:#E95420"/>
      <stop offset="100%" style="stop-color:#f37725"/>
    </linearGradient>
  </defs>
  <!-- Background -->
  <rect width="900" height="500" fill="url(#bg1)"/>
  <!-- Decorative grid -->
  <g opacity="0.05" stroke="#ffffff" stroke-width="0.5">
    <line x1="0" y1="100" x2="900" y2="100"/><line x1="0" y1="200" x2="900" y2="200"/>
    <line x1="0" y1="300" x2="900" y2="300"/><line x1="0" y1="400" x2="900" y2="400"/>
    <line x1="150" y1="0" x2="150" y2="500"/><line x1="300" y1="0" x2="300" y2="500"/>
    <line x1="450" y1="0" x2="450" y2="500"/><line x1="600" y1="0" x2="600" y2="500"/>
    <line x1="750" y1="0" x2="750" y2="500"/>
  </g>
  <!-- Windows logo hint (simplified) -->
  <rect x="60" y="140" width="80" height="80" rx="8" fill="#E95420" opacity="0.9"/>
  <rect x="65" y="145" width="33" height="33" rx="3" fill="#fff" opacity="0.9"/>
  <rect x="103" y="145" width="33" height="33" rx="3" fill="#fff" opacity="0.6"/>
  <rect x="65" y="184" width="33" height="33" rx="3" fill="#fff" opacity="0.6"/>
  <rect x="103" y="184" width="33" height="33" rx="3" fill="#fff" opacity="0.9"/>
  <!-- Arrow -->
  <path d="M170 180 L230 180 L220 165 M230 180 L220 195" stroke="url(#orange1)" stroke-width="4" fill="none" stroke-linecap="round" stroke-linejoin="round"/>
  <!-- Linux penguin icon hint -->
  <circle cx="290" cy="180" r="45" fill="none" stroke="#E95420" stroke-width="3" opacity="0.8"/>
  <ellipse cx="290" cy="168" rx="18" ry="22" fill="#E95420" opacity="0.85"/>
  <ellipse cx="275" cy="160" rx="10" ry="12" fill="#E95420" opacity="0.7"/>
  <ellipse cx="305" cy="160" rx="10" ry="12" fill="#E95420" opacity="0.7"/>
  <ellipse cx="290" cy="198" rx="26" ry="18" fill="#E95420" opacity="0.75"/>
  <!-- Sparkle elements -->
  <circle cx="380" cy="130" r="4" fill="#E95420" opacity="0.8"/>
  <circle cx="420" cy="230" r="6" fill="#f37725" opacity="0.5"/>
  <circle cx="350" cy="210" r="3" fill="#fff" opacity="0.4"/>
  <text x="60" y="300" font-family="'Microsoft YaHei','PingFang SC',sans-serif" font-size="42" font-weight="bold" fill="#ffffff">WSL 到底是什么？</text>
  <text x="60" y="355" font-family="'Microsoft YaHei','PingFang SC',sans-serif" font-size="28" fill="#E95420">为什么说它是 Windows 开发者的神器？</text>
  <text x="60" y="405" font-family="'Microsoft YaHei','PingFang SC',sans-serif" font-size="16" fill="#8892b0">从虚拟机到子系统 · 零门槛体验 Linux</text>
  <!-- Badge -->
  <rect x="700" y="30" width="170" height="36" rx="18" fill="#E95420" opacity="0.15"/>
  <text x="785" y="54" font-family="'Microsoft YaHei',sans-serif" font-size="15" fill="#E95420" text-anchor="middle">入门篇 #01</text>
  <!-- Bottom accent line -->
  <rect x="60" y="440" width="120" height="4" rx="2" fill="url(#orange1)"/>
</svg>