<svg xmlns="http://www.w3.org/2000/svg" viewBox="0 0 900 500" width="900" height="500">
<defs><linearGradient id="bg10" x1="0%" y1="0%" x2="100%" y2="100%"><stop offset="0%" stop-color="#0f172a"/><stop offset="100%" stop-color="#1e293b"/></linearGradient></defs><rect width="900" height="500" fill="url(#bg10)" rx="12"/>
<rect x="820" y="16" width="64" height="26" rx="13" fill="#E95420"/><text x="852" y="34" font-family="Arial,sans-serif" font-size="14" fill="#fff" text-anchor="middle" font-weight="bold">#07</text>

<!-- Title -->
<text x="450" y="52" font-family="Microsoft YaHei,Arial,sans-serif" font-size="28" fill="#fff" text-anchor="middle" font-weight="bold">Git 工作流在 WSL 中的正确姿势</text>
<text x="450" y="76" font-family="Microsoft YaHei,Arial,sans-serif" font-size="13" fill="#94a3b8" text-anchor="middle">SSH 配置 / 命令别名 / Git Hooks 一站式指南</text>

<!-- Git Branch Diagram -->
<text x="70" y="115" font-family="Microsoft YaHei,Arial" font-size="14" fill="#E95420" font-weight="bold">分支可视化</text>

<rect x="60" y="128" width="360" height="145" rx="8" fill="#0f172a" stroke="#334155" stroke-width="1"/>

<!-- Main branch line -->
<line x1="90" y1="250" x2="390" y2="160" stroke="#4ade80" stroke-width="3"/>
<circle cx="120" cy="240" r="8" fill="#4ade80"/>
<text x="120" y="244" font-family="Arial" font-size="9" fill="#000" text-anchor="middle" font-weight="bold">M1</text>
<circle cx="200" cy="215" r="8" fill="#4ade80"/>
<text x="200" y="219" font-family="Arial" font-size="9" fill="#000" text-anchor="middle" font-weight="bold">M2</text>
<circle cx="290" cy="182" r="8" fill="#4ade80"/>
<text x="290" y="186" font-family="Arial" font-size="9" fill="#000" text-anchor="middle" font-weight="bold">M3</text>
<circle cx="370" cy="158" r="8" fill="#4ade80"/>
<text x="370" y="162" font-family="Arial" font-size="9" fill="#000" text-anchor="middle" font-weight="bold">M4</text>
<text x="395" y="162" font-family="Arial" font-size="11" fill="#4ade80" font-weight="bold">main</text>

<!-- Feature branch -->
<line x1="200" y1="215" x2="260" y2="148" stroke="#f97316" stroke-width="2.5" stroke-dasharray="5,3"/>
<circle cx="260" cy="148" r="7" fill="#f97316"/>
<text x="285" y="145" font-family="Arial" font-size="10" fill="#f97316" font-weight="bold">feature</text>

<!-- Dev branch -->
<line x1="290" y1="182" x2="340" y2="145" stroke="#3b82f6" stroke-width="2.5" stroke-dasharray="5,3"/>
<circle cx="340" cy="145" r="7" fill="#3b82f6"/>
<text x="365" y="142" font-family="Arial" font-size="10" fill="#3b82f6" font-weight="bold">dev</text>

<!-- PR arrow -->
<path d="M268 152 Q300 175 335 150" fill="none" stroke="#a855f7" stroke-width="1.5" marker-end="url(#arrow)"/>
<defs><marker id="arrow" markerWidth="6" markerHeight="6" refX="5" refY="3" orient="auto"><path d="M0 0 L6 3 L0 6z" fill="#a855f7"/></marker></defs>
<text x="295" y="172" font-family="Arial" font-size="9" fill="#a855f7">PR</text>

<!-- SSH Key Setup -->
<text x="70" y="295" font-family="Microsoft YaHei,Arial" font-size="13" fill="#E95420" font-weight="bold">SSH 密钥配置</text>
<rect x="60" y="305" width="235" height="95" rx="8" fill="#1e293b"/>
<text x="74" y="326" font-family="Consolas,monospace" font-size="11" fill="#7ee787">$ ssh-keygen -t ed25519</text>
<text x="74" y="348" font-family="Consolas,monospace" font-size="11" fill="#79c0ff">$ cat ~/.ssh/id_ed25519.pub</text>
<text x="74" y="370" font-family="Consolas,monospace" font-size="11" fill="#ffa657">$ ssh -T git@github.com</text>
<text x="74" y="392" font-family="Consolas,monospace" font-size="10" fill="#4ade80" font-weight="bold"># 认证成功！</text>

<!-- Aliases -->
<text x="320" y="295" font-family="Microsoft YaHei,Arial" font-size="13" fill="#E95420" font-weight="bold">常用命令别名</text>
<rect x="310" y="305" width="255" height="95" rx="8" fill="#1e293b"/>
<text x="324" y="326" font-family="Consolas,monospace" font-size="11" fill="#c9d1d9">git co   = git checkout</text>
<text x="324" y="348" font-family="Consolas,monospace" font-size="11" fill="#c9d1d9">git br   = git branch -a</text>
<text x="324" y="370" font-family="Consolas,monospace" font-size="11" fill="#c9d1d9">git lg   = log --graph</text>
<text x="324" y="392" font-family="Consolas,monospace" font-size="11" fill="#c9d1d9">git st   = status -sb</text>

<!-- Hooks hint -->
<rect x="310" y="412" width="255" height="50" rx="8" fill="rgba(233,84,32,0.1)" stroke="#E95420" stroke-width="1"/>
<text x="437" y="433" font-family="Microsoft YaHei,Arial" font-size="11" fill="#E95420" text-anchor="middle" font-weight="bold">Git Hooks 自动化</text>
<text x="437" y="452" font-family="Microsoft YaHei,Arial" font-size="10" fill="#94a3b8" text-anchor="middle">提交前检查格式 / 推送前自动测试</text>

<!-- Bottom tag -->
<rect x="350" y="472" width="200" height="24" rx="12" fill="rgba(233,84,32,0.15)"/>
<text x="450" y="489" font-family="Microsoft YaHei,Arial" font-size="12" fill="#E95420" text-anchor="middle" font-weight="bold">Git / SSH / 开发效率</text>
</svg>