<svg xmlns="http://www.w3.org/2000/svg" viewBox="0 0 900 500" width="900" height="500">
<defs><linearGradient id="bg24" x1="0%" y1="0%" x2="100%" y2="100%"><stop offset="0%" stop-color="#0a0f1a"/><stop offset="100%" stop-color="#131c31"/></linearGradient></defs><rect width="900" height="500" fill="url(#bg24)" rx="12"/>
<rect x="820" y="16" width="64" height="26" rx="13" fill="#E95420"/><text x="852" y="34" font-family="Arial,sans-serif" font-size="14" fill="#fff" text-anchor="middle" font-weight="bold">#24</text>

<text x="450" y="46" font-family="Microsoft YaHei,Arial,sans-serif" font-size="26" fill="#fff" text-anchor="middle" font-weight="bold">WSL 实战项目合集：从个人博客到微服务的完整案例</text>
<text x="450" y="70" font-family="Microsoft YaHei,Arial,sans-serif" font-size="13" fill="#94a3b8" text-anchor="middle">4 个真实项目手把手带你从零到部署上线</text>

<!-- Project 1: Blog -->
<rect x="30" y="88" width="205" height="185" rx="10" fill="#1e293b" stroke="#3b82f6" stroke-width="1.5"/>
<rect x="42" y="100" width="180" height="30" rx="6" fill="#1e3a5f"/>
<text x="132" y="121" font-family="Microsoft YaHei,Arial" font-size="13" fill="#93c5fd" text-anchor="middle" font-weight="bold">个人博客</text>
<text x="132" y="145" font-family="Consolas,monospace" font-size="9" fill="#64748b" text-anchor="middle">Hugo / Hexo / Next.js</text>
<rect x="44" y="158" width="176" height="50" rx="4" fill="#0f172a"/>
<text x="54" y="175" font-family="Consolas,monospace" font-size="8" fill="#7ee787">$ hugo new site myblog</text>
<text x="54" y="190" font-family="Consolas,monospace" font-size="8" fill="#7ee787">$ hugo server -D</text>
<text x="54" y="202" font-family="Consolas,monospace" font-size="8" fill="#ffa657">$ deploy to Vercel/GitPages</text>
<text x="54" y="225" font-family="Consolas,monospace" font-size="8" fill="#6ee7b7" font-weight="bold"># 30分钟上线个人博客</text>
<text x="54" y="260" font-family="Microsoft YaHei,Arial" font-size="10" fill="#94a3b8">技术栈：Markdown + Git + CI-CD</text>

<!-- Project 2: REST API -->
<rect x="245" y="88" width="205" height="185" rx="10" fill="#1e293b" stroke="#10b981" stroke-width="1.5"/>
<rect x="257" y="100" width="180" height="30" rx="6" fill="#134e4a"/>
<text x="347" y="121" font-family="Microsoft YaHei,Arial" font-size="13" fill="#6ee7b7" text-anchor="middle" font-weight="bold">REST API 服务</text>
<text x="347" y="145" font-family="Consolas,monospace" font-size="9" fill="#64748b" text-anchor="middle">Express / FastAPI / Gin</text>
<rect x="249" y="155" width="196" height="53" rx="4" fill="#0f172a"/>
<text x="259" y="173" font-family="Consolas,monospace" font-size="8" fill="#79c0ff">GET    /api/users</text>
<text x="259" y="186" font-family="Consolas,monospace" font-size="8" fill="#7ee787">POST   /api/posts</text>
<text x="259" y="199" font-family="Consolas,monospace" font-size="8" fill="#ffa657">PUT    /api/:id</text>
<text x="259" y="228" font-family="Consolas,monospace" font-size="8" fill="#6ee7b7" font-weight="bold"># CRUD + JWT 认证 + Swagger</text>
<text x="259" y="260" font-family="Microsoft YaHei,Arial" font-size="10" fill="#94a3b8">技术栈：ORM + 数据库 + Docker</text>

<!-- Project 3: Data Analysis -->
<rect x="460" y="88" width="205" height="185" rx="10" fill="#1e293b" stroke="#f59e0b" stroke-width="1.5"/>
<rect x="472" y="100" width="180" height="30" rx="6" fill="#451a03"/>
<text x="562" y="121" font-family="Microsoft YaHei,Arial" font-size="13" fill="#fcd34d" text-anchor="middle" font-weight="bold">数据分析项目</text>
<text x="562" y="145" font-family="Consolas,monospace" font-size="9" fill="#64748b" text-anchor="middle">Pandas / Jupyter / Plotly</text>
<rect x="464" y="153" width="192" height="57" rx="4" fill="#0f172a"/>
<text x="474" y="171" font-family="Consolas,monospace" font-size="8" fill="#a371f7">import pandas as pd</text>
<text x="474" y="184" font-family="Consolas,monospace" font-size="8" fill="#a371f7">df = pd.read_csv(...)</text>
<text x="474" y="197" font-family="Consolas,monospace" font-size="8" fill="#a371f7">df.plot(kind='bar')</text>
<text x="474" y="228" font-family="Consolas,monospace" font-size="8" fill="#6ee7b7" font-weight="bold"># 可视化报表自动生成</text>
<text x="474" y="260" font-family="Microsoft YaHei,Arial" font-size="10" fill="#94a3b8">技术栈：Python + Matplotlib + CSV</text>

<!-- Project 4: CI/CD -->
<rect x="675" y="88" width="195" height="185" rx="10" fill="#1e293b" stroke="#a855f7" stroke-width="1.5"/>
<rect x="687" y="100" width="170" height="30" rx="6" fill="#2e1065"/>
<text x="772" y="121" font-family="Microsoft YaHei,Arial" font-size="13" fill="#c084fc" text-anchor="middle" font-weight="bold">CI/CD 流水线</text>
<text x="772" y="145" font-family="Consolas,monospace" font-size="9" fill="#64748b" text-anchor="middle">GitHub Actions / Jenkins</text>
<rect x="679" y="153" width="187" height="55" rx="4" fill="#0f172a"/>
<text x="689" y="171" font-family="Consolas,monospace" font-size="8" fill="#3fb950">Build  --- 通过</text>
<text x="689" y="184" font-family="Consolas,monospace" font-size="8" fill="#3fb950">Test   --- 全部通过</text>
<text x="689" y="197" font-family="Consolas,monospace" font-size="8" fill="#3fb950">Deploy --- 运行中</text>
<text x="689" y="201" font-family="Consolas,monospace" font-size="7" fill="#8b949e">git push -&gt; auto build -&gt; deploy</text>
<text x="689" y="228" font-family="Consolas,monospace" font-size="8" fill="#6ee7b7" font-weight="bold"># 自动化构建部署全流程</text>
<text x="689" y="260" font-family="Microsoft YaHei,Arial" font-size="10" fill="#94a3b8">技术栈：YAML + Docker + Nginx</text>

<!-- Common tech stack -->
<text x="450" y="295" font-family="Microsoft YaHei,Arial" font-size="14" fill="#E95420" text-anchor="middle" font-weight="bold">所有项目的共同技术栈</text>

<rect x="30" y="308" width="840" height="80" rx="10" fill="#0f172a" stroke="#1e293b" stroke-width="1"/>

<!-- Tech items -->
<rect x="55" y="330" width="195" height="26" rx="5" fill="#3b82f615"/><circle cx="69" cy="343" r="8" fill="#3b82f6" opacity="0.8"/><text x="83" y="347" font-family="Microsoft YaHei,Arial" font-size="10" fill="#e2e8f0">WSL 2 Linux 环境</text>
<rect x="265" y="330" width="195" height="26" rx="5" fill="#10b98115"/><circle cx="279" cy="343" r="8" fill="#10b981" opacity="0.8"/><text x="293" y="347" font-family="Microsoft YaHei,Arial" font-size="10" fill="#e2e8f0">Docker 容器化</text>
<rect x="475" y="330" width="195" height="26" rx="5" fill="#f59e0b15"/><circle cx="489" cy="343" r="8" fill="#f59e0b" opacity="0.8"/><text x="503" y="347" font-family="Microsoft YaHei,Arial" font-size="10" fill="#e2e8f0">Git 版本控制</text>
<rect x="685" y="330" width="195" height="26" rx="5" fill="#a855f715"/><circle cx="699" cy="343" r="8" fill="#a855f7" opacity="0.8"/><text x="713" y="347" font-family="Microsoft YaHei,Arial" font-size="10" fill="#e2e8f0">VS Code 编辑器</text>

<rect x="160" y="362" width="195" height="22" rx="5" fill="#ec489912"/><text x="170" y="377" font-family="Microsoft YaHei,Arial" font-size="10" fill="#e2e8f0">Node.js/Python 运行时</text>
<rect x="370" y="362" width="195" height="22" rx="5" fill="#06b6d412"/><text x="380" y="377" font-family="Microsoft YaHei,Arial" font-size="10" fill="#e2e8f0">PostgreSQL/Redis 数据库</text>
<rect x="580" y="362" width="195" height="22" rx="5" fill="#84cc1612"/><text x="590" y="377" font-family="Microsoft YaHei,Arial" font-size="10" fill="#e2e8f0">Nginx/Caddy Web服务</text>
<rect x="790" y="362" width="195" height="22" rx="5" fill="#f9731612"/><text x="800" y="377" font-family="Microsoft YaHei,Arial" font-size="10" fill="#e2e8f0">CI/CD 自动部署</text>

<rect x="315" y="408" width="270" height="26" rx="13" fill="rgba(233,84,32,0.15)"/>
<text x="450" y="426" font-family="Microsoft YaHei,Arial" font-size="12" fill="#E95420" text-anchor="middle" font-weight="bold">实战项目 / 从零到一 / 综合案例</text>
</svg>