<svg xmlns="http://www.w3.org/2000/svg" width="900" height="383" viewBox="0 0 900 383">
  <defs>
    <linearGradient id="bgGrad2" x1="0%" y1="0%" x2="100%" y2="100%">
      <stop offset="0%" style="stop-color:#141E30"/>
      <stop offset="100%" style="stop-color:#243B55"/>
    </linearGradient>
    <linearGradient id="libertyGrad" x1="0%" y1="0%" x2="100%" y2="0%">
      <stop offset="0%" style="stop-color:#c31432"/>
      <stop offset="100%" style="stop-color:#240b36"/>
    </linearGradient>
  </defs>
  
  <!-- 背景 -->
  <rect width="900" height="383" fill="url(#bgGrad2)"/>
  
  <!-- 装饰性光芒 -->
  <g opacity="0.08">
    <circle cx="780" cy="100" r="150" fill="#fff"/>
    <circle cx="780" cy="100" r="100" fill="#fff"/>
    <circle cx="780" cy="100" r="50" fill="#fff"/>
  </g>
  
  <!-- 左侧装饰条 -->
  <rect x="0" y="0" width="8" height="383" fill="url(#libertyGrad)"/>
  
  <!-- 年代标签 -->
  <rect x="50" y="40" width="120" height="36" rx="18" fill="#c31432" opacity="0.9"/>
  <text x="110" y="65" font-family="Microsoft YaHei, SimHei, sans-serif" font-size="16" font-weight="bold" fill="#fff" text-anchor="middle">
    1983-1990
  </text>
  
  <!-- 主标题 -->
  <text x="50" y="130" font-family="Microsoft YaHei, SimHei, sans-serif" font-size="42" font-weight="bold" fill="#ecf0f1">
    Linux 演进史（二）
  </text>
  
  <!-- 副标题 -->
  <text x="50" y="175" font-family="Microsoft YaHei, SimHei, sans-serif" font-size="18" fill="#e74c3c">
    他为了修改打印机代码被拒绝
  </text>
  <text x="50" y="200" font-family="Microsoft YaHei, SimHei, sans-serif" font-size="18" fill="#e74c3c">
    一怒之下辞职改变了世界
  </text>
  
  <!-- 分隔线 -->
  <rect x="50" y="225" width="500" height="2" fill="#c31432" opacity="0.6"/>
  
  <!-- 关键词 -->
  <text x="50" y="260" font-family="Microsoft YaHei, SimHei, sans-serif" font-size="14" fill="#bdc3c7">
    Richard Stallman | GNU 宣言 | 自由软件基金会
  </text>
  <text x="50" y="285" font-family="Microsoft YaHei, SimHei, sans-serif" font-size="14" fill="#bdc3c7">
    GPL 协议 | Copyleft | 打印机事件
  </text>
  
  <!-- 右侧打印机图标 -->
  <g transform="translate(680, 80)">
    <!-- 打印机主体 -->
    <rect x="20" y="60" width="120" height="80" rx="8" fill="#5D4E6D"/>
    <rect x="30" y="70" width="100" height="50" fill="#2c3e50"/>
    <!-- 出纸口 -->
    <rect x="40" y="120" width="80" height="30" fill="#7f8c8d"/>
    <rect x="50" y="125" width="60" height="20" fill="#ecf0f1"/>
    <!-- 控制面板 -->
    <rect x="110" y="90" width="20" height="10" fill="#e74c3c"/>
    <rect x="110" y="105" width="20" height="10" fill="#27ae60"/>
    <!-- 警告符号 -->
    <polygon points="80,30 95,60 65,60" fill="#f39c12" opacity="0.8"/>
    <text x="80" y="55" font-family="Arial, sans-serif" font-size="20" fill="#2c3e50" text-anchor="middle" font-weight="bold">!</text>
    <!-- 禁止符号 -->
    <circle cx="80" cy="45" r="25" stroke="#e74c3c" stroke-width="3" fill="none"/>
    <line x1="62" y1="27" x2="98" y2="63" stroke="#e74c3c" stroke-width="3"/>
  </g>
  
  <!-- 底部引言 -->
  <rect x="50" y="310" width="600" height="50" rx="5" fill="#1a1a2e" opacity="0.6"/>
  <text x="70" y="340" font-family="Microsoft YaHei, SimHei, sans-serif" font-size="13" fill="#ecf0f1" font-style="italic">
    "拒绝分享代码，就是背叛人性"
  </text>
  <text x="70" y="358" font-family="Microsoft YaHei, SimHei, sans-serif" font-size="11" fill="#7f8c8d">
    —— Richard Stallman，因一台打印机开启的开源革命
  </text>
</svg>