<svg xmlns="http://www.w3.org/2000/svg" width="900" height="383" viewBox="0 0 900 383">
  <defs>
    <linearGradient id="bgGrad4" x1="0%" y1="0%" x2="100%" y2="100%">
      <stop offset="0%" style="stop-color:#2C3E50"/>
      <stop offset="100%" style="stop-color:#4CA1AF"/>
    </linearGradient>
    <linearGradient id="debateGrad" x1="0%" y1="0%" x2="100%" y2="0%">
      <stop offset="0%" style="stop-color:#e96443"/>
      <stop offset="100%" style="stop-color:#904e95"/>
    </linearGradient>
  </defs>
  
  <!-- 背景 -->
  <rect width="900" height="383" fill="url(#bgGrad4)"/>
  
  <!-- 对称装饰线 -->
  <g opacity="0.1">
    <line x1="450" y1="0" x2="450" y2="383" stroke="#fff" stroke-width="2"/>
    <line x1="0" y1="191.5" x2="900" y2="191.5" stroke="#fff" stroke-width="2"/>
  </g>
  
  <!-- 左侧装饰条 -->
  <rect x="0" y="0" width="8" height="383" fill="url(#debateGrad)"/>
  
  <!-- 年代标签 -->
  <rect x="50" y="40" width="100" height="36" rx="18" fill="#e96443" opacity="0.9"/>
  <text x="100" y="65" font-family="Microsoft YaHei, SimHei, sans-serif" font-size="16" font-weight="bold" fill="#fff" text-anchor="middle">
    1992
  </text>
  
  <!-- 主标题 -->
  <text x="50" y="130" font-family="Microsoft YaHei, SimHei, sans-serif" font-size="42" font-weight="bold" fill="#ecf0f1">
    Linux 演进史（四）
  </text>
  
  <!-- 副标题 -->
  <text x="50" y="175" font-family="Microsoft YaHei, SimHei, sans-serif" font-size="18" fill="#e96443">
    权威教授说"Linux已过时"
  </text>
  <text x="50" y="200" font-family="Microsoft YaHei, SimHei, sans-serif" font-size="18" fill="#e96443">
    21岁学生如何反击？
  </text>
  
  <!-- 分隔线 -->
  <rect x="50" y="225" width="500" height="2" fill="#904e95" opacity="0.6"/>
  
  <!-- 关键词 -->
  <text x="50" y="260" font-family="Microsoft YaHei, SimHei, sans-serif" font-size="14" fill="#bdc3c7">
    Tanenbaum vs Torvalds | "Linux is obsolete"
  </text>
  <text x="50" y="285" font-family="Microsoft YaHei, SimHei, sans-serif" font-size="14" fill="#bdc3c7">
    学术权威 vs 年轻学生 | 微内核 vs 宏内核
  </text>
  
  <!-- 右侧VS对决图 -->
  <g transform="translate(600, 60)">
    <!-- 教授方 -->
    <g transform="translate(0, 0)">
      <circle cx="60" cy="60" r="45" fill="#5D4E6D"/>
      <text x="60" y="55" font-family="Microsoft YaHei, SimHei, sans-serif" font-size="12" fill="#ecf0f1" text-anchor="middle">权威</text>
      <text x="60" y="70" font-family="Microsoft YaHei, SimHei, sans-serif" font-size="12" fill="#ecf0f1" text-anchor="middle">教授</text>
      <text x="60" y="120" font-family="Microsoft YaHei, SimHei, sans-serif" font-size="11" fill="#e96443" text-anchor="middle">"过时！"</text>
    </g>
    
    <!-- VS -->
    <g transform="translate(100, 30)">
      <text x="30" y="40" font-family="Impact, sans-serif" font-size="36" fill="#fff" text-anchor="middle">VS</text>
      <polygon points="30,50 50,65 30,80 10,65" fill="#f39c12"/>
    </g>
    
    <!-- 学生方 -->
    <g transform="translate(160, 0)">
      <circle cx="60" cy="60" r="45" fill="#3498db"/>
      <text x="60" y="55" font-family="Microsoft YaHei, SimHei, sans-serif" font-size="12" fill="#ecf0f1" text-anchor="middle">21岁</text>
      <text x="60" y="70" font-family="Microsoft YaHei, SimHei, sans-serif" font-size="12" fill="#ecf0f1" text-anchor="middle">学生</text>
      <text x="60" y="120" font-family="Microsoft YaHei, SimHei, sans-serif" font-size="11" fill="#27ae60" text-anchor="middle">"能用！"</text>
    </g>
    
    <!-- 闪电效果 -->
    <polygon points="130,0 135,10 128,10 133,20 120,8 127,8 122,0" fill="#f39c12" opacity="0.8"/>
  </g>
  
  <!-- 底部引言 -->
  <rect x="50" y="310" width="600" height="50" rx="5" fill="#2c3e50" opacity="0.6"/>
  <text x="70" y="335" font-family="Microsoft YaHei, SimHei, sans-serif" font-size="13" fill="#ecf0f1" font-style="italic">
    "你的理论很完美，但我的系统能跑"
  </text>
  <text x="70" y="355" font-family="Microsoft YaHei, SimHei, sans-serif" font-size="11" fill="#7f8c8d">
    —— 这场争论意外地为 Linux 做了全球免费广告
  </text>
</svg>