<svg xmlns="http://www.w3.org/2000/svg" width="900" height="383" viewBox="0 0 900 383">
  <defs>
    <linearGradient id="bg1" x1="0" y1="0" x2="1" y2="1">
      <stop offset="0%" stop-color="#0f172a"/>
      <stop offset="50%" stop-color="#0b3b66"/>
      <stop offset="100%" stop-color="#0ea5a4"/>
    </linearGradient>
    <linearGradient id="badge1" x1="0" y1="0" x2="1" y2="0">
      <stop offset="0%" stop-color="#f59e0b"/>
      <stop offset="100%" stop-color="#f97316"/>
    </linearGradient>
    <filter id="softShadow" x="-20%" y="-20%" width="140%" height="140%">
      <feDropShadow dx="0" dy="6" stdDeviation="8" flood-opacity="0.35"/>
    </filter>
    <pattern id="grid" width="28" height="28" patternUnits="userSpaceOnUse">
      <path d="M28 0H0V28" fill="none" stroke="rgba(255,255,255,0.08)" stroke-width="1"/>
    </pattern>
  </defs>

  <rect width="900" height="383" fill="url(#bg1)"/>
  <rect width="900" height="383" fill="url(#grid)"/>

  <circle cx="95" cy="55" r="90" fill="rgba(255,255,255,0.08)"/>
  <circle cx="840" cy="320" r="130" fill="rgba(255,255,255,0.08)"/>

  <g transform="translate(62,72)">
    <rect x="0" y="0" width="190" height="36" rx="18" fill="url(#badge1)"/>
    <text x="95" y="24" text-anchor="middle" font-family="Alibaba PuHuiTi, Microsoft YaHei, PingFang SC, sans-serif" font-size="18" font-weight="700" fill="#111827">2026 成本拆解</text>

    <text x="0" y="98" font-family="Alibaba PuHuiTi, Microsoft YaHei, PingFang SC, sans-serif" font-size="62" font-weight="800" fill="#ffffff">小程序报价</text>
    <text x="0" y="166" font-family="Alibaba PuHuiTi, Microsoft YaHei, PingFang SC, sans-serif" font-size="62" font-weight="800" fill="#ffffff">对照表</text>

    <text x="0" y="215" font-family="Alibaba PuHuiTi, Microsoft YaHei, PingFang SC, sans-serif" font-size="24" fill="#dbeafe">模块说明 · 预算区间 · 验收项</text>
  </g>

  <g transform="translate(598,36)" filter="url(#softShadow)">
    <rect x="0" y="8" width="230" height="310" rx="24" fill="#f8fafc"/>
    <rect x="18" y="30" width="194" height="260" rx="12" fill="#e2e8f0"/>

    <rect x="34" y="54" width="162" height="18" rx="9" fill="#94a3b8"/>
    <rect x="34" y="84" width="126" height="12" rx="6" fill="#cbd5e1"/>
    <rect x="34" y="108" width="152" height="12" rx="6" fill="#cbd5e1"/>

    <rect x="34" y="138" width="162" height="64" rx="12" fill="#ffffff"/>
    <rect x="46" y="152" width="76" height="10" rx="5" fill="#64748b"/>
    <rect x="46" y="170" width="60" height="8" rx="4" fill="#cbd5e1"/>
    <rect x="128" y="150" width="56" height="38" rx="8" fill="#0ea5a4"/>
    <text x="156" y="175" text-anchor="middle" font-family="Arial, sans-serif" font-size="16" font-weight="700" fill="#ffffff">¥</text>

    <rect x="34" y="212" width="162" height="64" rx="12" fill="#ffffff"/>
    <rect x="46" y="225" width="76" height="10" rx="5" fill="#64748b"/>
    <rect x="46" y="244" width="84" height="8" rx="4" fill="#cbd5e1"/>
    <rect x="128" y="223" width="56" height="38" rx="8" fill="#f97316"/>
    <text x="156" y="248" text-anchor="middle" font-family="Arial, sans-serif" font-size="16" font-weight="700" fill="#ffffff">¥</text>

    <g transform="translate(186,0)">
      <circle cx="44" cy="38" r="34" fill="#f43f5e"/>
      <text x="44" y="45" text-anchor="middle" font-family="Arial, sans-serif" font-size="26" font-weight="700" fill="#ffffff">?</text>
    </g>
  </g>
</svg>
