<svg xmlns="http://www.w3.org/2000/svg" width="900" height="383" viewBox="0 0 900 383">
  <defs>
    <linearGradient id="bg3" x1="0" y1="0" x2="1" y2="1">
      <stop offset="0%" stop-color="#1c1917"/>
      <stop offset="60%" stop-color="#292524"/>
      <stop offset="100%" stop-color="#0f172a"/>
    </linearGradient>
    <linearGradient id="warn" x1="0" y1="0" x2="1" y2="0">
      <stop offset="0%" stop-color="#f59e0b"/>
      <stop offset="100%" stop-color="#ef4444"/>
    </linearGradient>
  </defs>

  <rect width="900" height="383" fill="url(#bg3)"/>
  <rect x="0" y="0" width="900" height="383" fill="rgba(255,255,255,0.02)"/>

  <g transform="translate(62,60)">
    <rect x="0" y="0" width="246" height="40" rx="20" fill="url(#warn)"/>
    <text x="123" y="27" text-anchor="middle" font-family="Alibaba PuHuiTi, Microsoft YaHei, PingFang SC, sans-serif" font-size="20" font-weight="700" fill="#111827">签约前必看清单</text>

    <text x="0" y="105" font-family="Alibaba PuHuiTi, Microsoft YaHei, PingFang SC, sans-serif" font-size="56" font-weight="800" fill="#ffffff">外包合同</text>
    <text x="0" y="168" font-family="Alibaba PuHuiTi, Microsoft YaHei, PingFang SC, sans-serif" font-size="56" font-weight="800" fill="#ffffff">12 个关键条款</text>

    <rect x="0" y="196" width="330" height="44" rx="12" fill="rgba(245,158,11,0.2)" stroke="#f59e0b"/>
    <text x="165" y="225" text-anchor="middle" font-family="Alibaba PuHuiTi, Microsoft YaHei, PingFang SC, sans-serif" font-size="24" font-weight="700" fill="#fde68a">少写 1 条，多花几万</text>
  </g>

  <g transform="translate(586,44)">
    <rect x="0" y="0" width="244" height="300" rx="20" fill="#e7e5e4"/>
    <rect x="22" y="26" width="200" height="252" rx="12" fill="#fafaf9"/>
    <rect x="84" y="-16" width="76" height="34" rx="12" fill="#f59e0b"/>

    <g transform="translate(44,58)">
      <circle cx="12" cy="12" r="12" fill="#22c55e"/>
      <path d="M6 12l4 4 8-9" fill="none" stroke="#fff" stroke-width="2.4" stroke-linecap="round" stroke-linejoin="round"/>
      <rect x="32" y="6" width="132" height="12" rx="6" fill="#78716c"/>

      <circle cx="12" cy="54" r="12" fill="#22c55e"/>
      <path d="M6 54l4 4 8-9" fill="none" stroke="#fff" stroke-width="2.4" stroke-linecap="round" stroke-linejoin="round"/>
      <rect x="32" y="48" width="148" height="12" rx="6" fill="#78716c"/>

      <circle cx="12" cy="96" r="12" fill="#22c55e"/>
      <path d="M6 96l4 4 8-9" fill="none" stroke="#fff" stroke-width="2.4" stroke-linecap="round" stroke-linejoin="round"/>
      <rect x="32" y="90" width="122" height="12" rx="6" fill="#78716c"/>

      <circle cx="12" cy="138" r="12" fill="#f97316"/>
      <text x="12" y="142" text-anchor="middle" font-family="Arial, sans-serif" font-size="14" font-weight="700" fill="#fff">!</text>
      <rect x="32" y="132" width="146" height="12" rx="6" fill="#a8a29e"/>

      <circle cx="12" cy="180" r="12" fill="#f97316"/>
      <text x="12" y="184" text-anchor="middle" font-family="Arial, sans-serif" font-size="14" font-weight="700" fill="#fff">!</text>
      <rect x="32" y="174" width="114" height="12" rx="6" fill="#a8a29e"/>
    </g>
  </g>
</svg>
