<svg xmlns="http://www.w3.org/2000/svg" width="900" height="383" viewBox="0 0 900 383">
  <defs>
    <linearGradient id="bg" x1="0" y1="0" x2="1" y2="1">
      <stop offset="0%" stop-color="#0b132b"/>
      <stop offset="50%" stop-color="#1c2541"/>
      <stop offset="100%" stop-color="#0ea5a4"/>
    </linearGradient>
    <linearGradient id="tag" x1="0" y1="0" x2="1" y2="0">
      <stop offset="0%" stop-color="#22d3ee"/>
      <stop offset="100%" stop-color="#34d399"/>
    </linearGradient>
    <pattern id="dots" width="22" height="22" patternUnits="userSpaceOnUse">
      <circle cx="2" cy="2" r="1.5" fill="rgba(255,255,255,0.18)"/>
    </pattern>
  </defs>

  <rect width="900" height="383" fill="url(#bg)"/>
  <rect width="900" height="383" fill="url(#dots)"/>

  <g transform="translate(58,62)">
    <rect x="0" y="0" width="242" height="40" rx="20" fill="url(#tag)"/>
    <text x="121" y="27" text-anchor="middle" font-family="Alibaba PuHuiTi, Microsoft YaHei, PingFang SC, sans-serif" font-size="20" font-weight="700" fill="#0f172a">可直接套用模板</text>

    <text x="0" y="104" font-family="Alibaba PuHuiTi, Microsoft YaHei, PingFang SC, sans-serif" font-size="54" font-weight="800" fill="#ffffff">小程序功能</text>
    <text x="0" y="166" font-family="Alibaba PuHuiTi, Microsoft YaHei, PingFang SC, sans-serif" font-size="54" font-weight="800" fill="#ffffff">报价对照表</text>

    <text x="0" y="214" font-family="Alibaba PuHuiTi, Microsoft YaHei, PingFang SC, sans-serif" font-size="24" fill="#dbeafe">模块说明 · 预算区间 · 验收项</text>

    <rect x="0" y="232" width="304" height="42" rx="12" fill="rgba(16,185,129,0.22)" stroke="#34d399"/>
    <text x="152" y="260" text-anchor="middle" font-family="Alibaba PuHuiTi, Microsoft YaHei, PingFang SC, sans-serif" font-size="22" font-weight="700" fill="#bbf7d0">供应商比价不踩坑</text>
  </g>

  <g transform="translate(586,38)">
    <rect x="0" y="8" width="250" height="300" rx="22" fill="#f8fafc"/>
    <rect x="18" y="28" width="214" height="260" rx="12" fill="#e2e8f0"/>

    <rect x="34" y="46" width="182" height="18" rx="9" fill="#64748b"/>
    <rect x="34" y="74" width="126" height="10" rx="5" fill="#94a3b8"/>

    <g transform="translate(34,100)">
      <rect x="0" y="0" width="182" height="34" rx="8" fill="#ffffff"/>
      <rect x="10" y="10" width="72" height="14" rx="7" fill="#0ea5a4"/>
      <rect x="90" y="10" width="54" height="14" rx="7" fill="#38bdf8"/>
      <rect x="148" y="10" width="24" height="14" rx="7" fill="#22c55e"/>

      <rect x="0" y="44" width="182" height="34" rx="8" fill="#ffffff"/>
      <rect x="10" y="54" width="58" height="14" rx="7" fill="#0ea5a4"/>
      <rect x="74" y="54" width="66" height="14" rx="7" fill="#38bdf8"/>
      <rect x="146" y="54" width="26" height="14" rx="7" fill="#22c55e"/>

      <rect x="0" y="88" width="182" height="34" rx="8" fill="#ffffff"/>
      <rect x="10" y="98" width="64" height="14" rx="7" fill="#0ea5a4"/>
      <rect x="80" y="98" width="62" height="14" rx="7" fill="#38bdf8"/>
      <rect x="148" y="98" width="24" height="14" rx="7" fill="#22c55e"/>

      <rect x="0" y="132" width="182" height="34" rx="8" fill="#ffffff"/>
      <rect x="10" y="142" width="56" height="14" rx="7" fill="#0ea5a4"/>
      <rect x="72" y="142" width="70" height="14" rx="7" fill="#38bdf8"/>
      <rect x="148" y="142" width="24" height="14" rx="7" fill="#22c55e"/>
    </g>

    <circle cx="236" cy="22" r="28" fill="#f97316"/>
    <text x="236" y="30" text-anchor="middle" font-family="Arial, sans-serif" font-size="20" font-weight="700" fill="#fff">￥</text>
  </g>
</svg>
