<svg width="900" height="383" xmlns="http://www.w3.org/2000/svg">
  <defs>
    <linearGradient id="grad_05-modern-css-architecture_svg" x1="0%" y1="0%" x2="100%" y2="100%">
      <stop offset="0%" style="stop-color:#000428;stop-opacity:1" />
      <stop offset="100%" style="stop-color:#004e92;stop-opacity:1" />
    </linearGradient>
    <filter id="shadow">
      <feDropShadow dx="2" dy="2" stdDeviation="3" flood-opacity="0.3"/>
    </filter>
  </defs>
  
  <!-- Background -->
  <rect width="100%" height="100%" fill="url(#grad_05-modern-css-architecture_svg)" />
  
  <!-- Geometric Pattern -->
  <line x1="0" y1="0" x2="0" y2="383" stroke="#FFFFFF" stroke-opacity="0.1" />
  <line x1="50" y1="0" x2="50" y2="383" stroke="#FFFFFF" stroke-opacity="0.1" />
  <line x1="100" y1="0" x2="100" y2="383" stroke="#FFFFFF" stroke-opacity="0.1" />
  <line x1="150" y1="0" x2="150" y2="383" stroke="#FFFFFF" stroke-opacity="0.1" />
  <line x1="200" y1="0" x2="200" y2="383" stroke="#FFFFFF" stroke-opacity="0.1" />
  <line x1="250" y1="0" x2="250" y2="383" stroke="#FFFFFF" stroke-opacity="0.1" />
  <line x1="300" y1="0" x2="300" y2="383" stroke="#FFFFFF" stroke-opacity="0.1" />
  <line x1="350" y1="0" x2="350" y2="383" stroke="#FFFFFF" stroke-opacity="0.1" />
  <line x1="400" y1="0" x2="400" y2="383" stroke="#FFFFFF" stroke-opacity="0.1" />
  <line x1="450" y1="0" x2="450" y2="383" stroke="#FFFFFF" stroke-opacity="0.1" />
  <line x1="500" y1="0" x2="500" y2="383" stroke="#FFFFFF" stroke-opacity="0.1" />
  <line x1="550" y1="0" x2="550" y2="383" stroke="#FFFFFF" stroke-opacity="0.1" />
  <line x1="600" y1="0" x2="600" y2="383" stroke="#FFFFFF" stroke-opacity="0.1" />
  <line x1="650" y1="0" x2="650" y2="383" stroke="#FFFFFF" stroke-opacity="0.1" />
  <line x1="700" y1="0" x2="700" y2="383" stroke="#FFFFFF" stroke-opacity="0.1" />
  <line x1="750" y1="0" x2="750" y2="383" stroke="#FFFFFF" stroke-opacity="0.1" />
  <line x1="800" y1="0" x2="800" y2="383" stroke="#FFFFFF" stroke-opacity="0.1" />
  <line x1="850" y1="0" x2="850" y2="383" stroke="#FFFFFF" stroke-opacity="0.1" />
  <line x1="0" y1="0" x2="900" y2="0" stroke="#FFFFFF" stroke-opacity="0.1" />
  <line x1="0" y1="50" x2="900" y2="50" stroke="#FFFFFF" stroke-opacity="0.1" />
  <line x1="0" y1="100" x2="900" y2="100" stroke="#FFFFFF" stroke-opacity="0.1" />
  <line x1="0" y1="150" x2="900" y2="150" stroke="#FFFFFF" stroke-opacity="0.1" />
  <line x1="0" y1="200" x2="900" y2="200" stroke="#FFFFFF" stroke-opacity="0.1" />
  <line x1="0" y1="250" x2="900" y2="250" stroke="#FFFFFF" stroke-opacity="0.1" />
  <line x1="0" y1="300" x2="900" y2="300" stroke="#FFFFFF" stroke-opacity="0.1" />
  <line x1="0" y1="350" x2="900" y2="350" stroke="#FFFFFF" stroke-opacity="0.1" />
  
  
  <!-- Content Layout (Left Aligned) -->
  <g transform="translate(60, 0)">
      <!-- Series Tag -->
      <rect x="0" y="50" width="160" height="36" rx="18" fill="#FFCB05" />
      <text x="80" y="75" font-family="Microsoft YaHei, SimHei, sans-serif" font-size="16" font-weight="bold" fill="#1E3C72" text-anchor="middle">Vue 3 全景攻略</text>
      
      <!-- Main Title -->
      <text x="0" y="160" font-family="Microsoft YaHei, SimHei, sans-serif" font-size="56" font-weight="bold" fill="#FFFFFF" filter="url(#shadow)">现代 CSS 架构</text>
      
      <!-- Sub Title -->
      <text x="0" y="230" font-family="Microsoft YaHei, SimHei, sans-serif" font-size="32" font-weight="normal" fill="#FFFFFF" opacity="0.9">Scoped 到 Atomic CSS</text>
      
      <!-- Chapter Number -->
      <line x1="0" y1="270" x2="60" y2="270" stroke="#FFFFFF" stroke-width="4" />
      <text x="80" y="278" font-family="Microsoft YaHei, SimHei, sans-serif" font-size="20" fill="#FFFFFF" opacity="0.8">第 05 篇</text>
  </g>
  
  <!-- Vue Logo Placeholder (Abstract) -->
  <path d="M750 100 L850 273 L750 100" fill="none" /> 
  <g transform="translate(650, 90) scale(0.8)">
    <path d="M128 0 L256 220 L0 220 Z" fill="#42b883" opacity="0.2"/>
    <path d="M128 50 L220 200 L36 200 Z" fill="#35495e" opacity="0.3"/>
  </g>
</svg>