<svg width="900" height="383" xmlns="http://www.w3.org/2000/svg">
  <defs>
    <linearGradient id="grad_07-router-system-deep-dive_svg" x1="0%" y1="0%" x2="100%" y2="100%">
      <stop offset="0%" style="stop-color:#DA22FF;stop-opacity:1" />
      <stop offset="100%" style="stop-color:#9733EE;stop-opacity:1" />
    </linearGradient>
    <filter id="shadow">
      <feDropShadow dx="2" dy="2" stdDeviation="3" flood-opacity="0.3"/>
    </filter>
  </defs>
  
  <!-- Background -->
  <rect width="100%" height="100%" fill="url(#grad_07-router-system-deep-dive_svg)" />
  
  <!-- Geometric Pattern -->
  <rect x="317" y="123" width="167" height="70" fill="#FFFFFF" opacity="0.1" transform="rotate(4 317 123)" />
  <rect x="162" y="340" width="178" height="81" fill="#FFFFFF" opacity="0.22" transform="rotate(33 162 340)" />
  <rect x="773" y="364" width="53" height="186" fill="#FFFFFF" opacity="0.2" transform="rotate(39 773 364)" />
  <rect x="123" y="178" width="235" height="131" fill="#FFFFFF" opacity="0.22" transform="rotate(36 123 178)" />
  <rect x="276" y="249" width="188" height="190" fill="#FFFFFF" opacity="0.29" transform="rotate(31 276 249)" />
  
  
  <!-- Content Layout (Left Aligned) -->
  <g transform="translate(60, 0)">
      <!-- Series Tag -->
      <rect x="0" y="50" width="160" height="36" rx="18" fill="#FFCB05" />
      <text x="80" y="75" font-family="Microsoft YaHei, SimHei, sans-serif" font-size="16" font-weight="bold" fill="#1E3C72" text-anchor="middle">Vue 3 全景攻略</text>
      
      <!-- Main Title -->
      <text x="0" y="160" font-family="Microsoft YaHei, SimHei, sans-serif" font-size="56" font-weight="bold" fill="#FFFFFF" filter="url(#shadow)">路由系统深潜</text>
      
      <!-- Sub Title -->
      <text x="0" y="230" font-family="Microsoft YaHei, SimHei, sans-serif" font-size="32" font-weight="normal" fill="#FFFFFF" opacity="0.9">动态权限与文件路由</text>
      
      <!-- Chapter Number -->
      <line x1="0" y1="270" x2="60" y2="270" stroke="#FFFFFF" stroke-width="4" />
      <text x="80" y="278" font-family="Microsoft YaHei, SimHei, sans-serif" font-size="20" fill="#FFFFFF" opacity="0.8">第 07 篇</text>
  </g>
  
  <!-- Vue Logo Placeholder (Abstract) -->
  <path d="M750 100 L850 273 L750 100" fill="none" /> 
  <g transform="translate(650, 90) scale(0.8)">
    <path d="M128 0 L256 220 L0 220 Z" fill="#42b883" opacity="0.2"/>
    <path d="M128 50 L220 200 L36 200 Z" fill="#35495e" opacity="0.3"/>
  </g>
</svg>