<svg width="900" height="500" viewBox="0 0 900 500" xmlns="http://www.w3.org/2000/svg">
  <defs>
    <!-- 背景渐变 -->
    <linearGradient id="bgGradient" x1="0%" y1="0%" x2="100%" y2="100%">
      <stop offset="0%" style="stop-color:#1a1a2e"/>
      <stop offset="100%" style="stop-color:#16213e"/>
    </linearGradient>
    
    <!-- 主色调渐变 -->
    <linearGradient id="accentGradient" x1="0%" y1="0%" x2="100%" y2="0%">
      <stop offset="0%" style="stop-color:#E95420"/>
      <stop offset="100%" style="stop-color:#FF6B35"/>
    </linearGradient>
    
    <!-- 光晕效果 -->
    <filter id="glow" x="-50%" y="-50%" width="200%" height="200%">
      <feGaussianBlur stdDeviation="3" result="coloredBlur"/>
      <feMerge>
        <feMergeNode in="coloredBlur"/>
        <feMergeNode in="SourceGraphic"/>
      </feMerge>
    </filter>
  </defs>
  
  <!-- 背景 -->
  <rect width="900" height="500" fill="url(#bgGradient)"/>
  
  <!-- 装饰网格 -->
  <g opacity="0.05">
    <path d="M0 100 H900 M0 200 H900 M0 300 H900 M0 400 H900" stroke="#fff" stroke-width="1"/>
    <path d="M100 0 V500 M200 0 V500 M300 0 V500 M400 0 V500 M500 0 V500 M600 0 V500 M700 0 V500 M800 0 V500" stroke="#fff" stroke-width="1"/>
  </g>
  
  <!-- 顶部标签 -->
  <rect x="40" y="30" width="120" height="32" rx="16" fill="url(#accentGradient)"/>
  <text x="100" y="52" font-family="Arial, sans-serif" font-size="14" fill="#fff" text-anchor="middle" font-weight="bold">深度评测</text>
  
  <!-- 版本标识 -->
  <rect x="180" y="30" width="100" height="32" rx="16" fill="#2D3748" stroke="#E95420" stroke-width="2"/>
  <text x="230" y="52" font-family="Arial, sans-serif" font-size="14" fill="#E95420" text-anchor="middle" font-weight="bold">Linux 6.15</text>
  
  <!-- 主标题 -->
  <text x="450" y="180" font-family="Arial, sans-serif" font-size="56" fill="#fff" text-anchor="middle" font-weight="bold">
    Linux内核6.15
  </text>
  <text x="450" y="240" font-family="Arial, sans-serif" font-size="32" fill="url(#accentGradient)" text-anchor="middle">
    深度解析
  </text>
  
  <!-- 核心特性卡片 -->
  <g transform="translate(60, 300)">
    <!-- 卡片1 -->
    <rect x="0" y="0" width="180" height="140" rx="12" fill="#2D3748" opacity="0.8"/>
    <text x="90" y="35" font-family="Arial, sans-serif" font-size="13" fill="#E95420" text-anchor="middle" font-weight="bold">VFS现代化</text>
    <text x="90" y="60" font-family="Arial, sans-serif" font-size="11" fill="#CBD5E0" text-anchor="middle">挂载通知</text>
    <text x="90" y="80" font-family="Arial, sans-serif" font-size="11" fill="#CBD5E0" text-anchor="middle">ID映射挂载</text>
    <text x="90" y="100" font-family="Arial, sans-serif" font-size="11" fill="#CBD5E0" text-anchor="middle">容器技术福音</text>
    <text x="90" y="125" font-family="Arial, sans-serif" font-size="16" fill="url(#accentGradient)" text-anchor="middle" font-weight="bold">核心改造</text>
  </g>
  
  <g transform="translate(260, 300)">
    <!-- 卡片2 -->
    <rect x="0" y="0" width="180" height="140" rx="12" fill="#2D3748" opacity="0.8"/>
    <text x="90" y="35" font-family="Arial, sans-serif" font-size="13" fill="#E95420" text-anchor="middle" font-weight="bold">Nova驱动</text>
    <text x="90" y="60" font-family="Arial, sans-serif" font-size="11" fill="#CBD5E0" text-anchor="middle">Rust编写</text>
    <text x="90" y="80" font-family="Arial, sans-serif" font-size="11" fill="#CBD5E0" text-anchor="middle">替代Nouveau</text>
    <text x="90" y="100" font-family="Arial, sans-serif" font-size="11" fill="#CBD5E0" text-anchor="middle">NVIDIA开源</text>
    <text x="90" y="125" font-family="Arial, sans-serif" font-size="16" fill="url(#accentGradient)" text-anchor="middle" font-weight="bold">历史里程碑</text>
  </g>
  
  <g transform="translate(460, 300)">
    <!-- 卡片3 -->
    <rect x="0" y="0" width="180" height="140" rx="12" fill="#2D3748" opacity="0.8"/>
    <text x="90" y="35" font-family="Arial, sans-serif" font-size="13" fill="#E95420" text-anchor="middle" font-weight="bold">性能暴增</text>
    <text x="90" y="60" font-family="Arial, sans-serif" font-size="11" fill="#CBD5E0" text-anchor="middle">exFAT优化</text>
    <text x="90" y="80" font-family="Arial, sans-serif" font-size="11" fill="#CBD5E0" text-anchor="middle">io_uring零拷贝</text>
    <text x="90" y="100" font-family="Arial, sans-serif" font-size="11" fill="#CBD5E0" text-anchor="middle">Btrfs提升30%</text>
    <text x="90" y="125" font-family="Arial, sans-serif" font-size="16" fill="url(#accentGradient)" text-anchor="middle" font-weight="bold">150倍提升</text>
  </g>
  
  <g transform="translate(660, 300)">
    <!-- 卡片4 -->
    <rect x="0" y="0" width="180" height="140" rx="12" fill="#2D3748" opacity="0.8"/>
    <text x="90" y="35" font-family="Arial, sans-serif" font-size="13" fill="#E95420" text-anchor="middle" font-weight="bold">安全增强</text>
    <text x="90" y="60" font-family="Arial, sans-serif" font-size="11" fill="#CBD5E0" text-anchor="middle">Mseal系统调用</text>
    <text x="90" y="80" font-family="Arial, sans-serif" font-size="11" fill="#CBD5E0" text-anchor="middle">内存密封</text>
    <text x="90" y="100" font-family="Arial, sans-serif" font-size="11" fill="#CBD5E0" text-anchor="middle">漏洞缓解</text>
    <text x="90" y="125" font-family="Arial, sans-serif" font-size="16" fill="url(#accentGradient)" text-anchor="middle" font-weight="bold">新防线</text>
  </g>
  
  <!-- Ubuntu Logo（右下角） -->
  <g transform="translate(800, 450)">
    <circle cx="30" cy="20" r="25" fill="#E95420" opacity="0.15"/>
    <text x="30" y="25" font-family="Arial, sans-serif" font-size="12" fill="#E95420" text-anchor="middle" font-weight="bold">U</text>
  </g>
  
  <!-- 底部信息 -->
  <text x="40" y="480" font-family="Arial, sans-serif" font-size="14" fill="#718096">
    2026年重磅更新 | Ubuntu 26.04.1即将集成 | 三种升级方式详解
  </text>
</svg>