<svg width="900" height="383" xmlns="http://www.w3.org/2000/svg">
  <defs>
    <linearGradient id="bg" x1="0" y1="0" x2="1" y2="1">
      <stop offset="0%" stop-color="#772953"/>
      <stop offset="100%" stop-color="#E95420"/>
    </linearGradient>
    <linearGradient id="shine" x1="0" y1="0" x2="1" y2="0">
      <stop offset="0%" stop-color="rgba(255,255,255,0.0)"/>
      <stop offset="50%" stop-color="rgba(255,255,255,0.12)"/>
      <stop offset="100%" stop-color="rgba(255,255,255,0.0)"/>
    </linearGradient>
  </defs>

  <rect width="900" height="383" fill="url(#bg)"/>

  <rect x="30" y="30" rx="18" ry="18" width="260" height="200" fill="rgba(255,255,255,0.12)" stroke="rgba(255,255,255,0.35)" stroke-width="1.5"/>
  <circle cx="46" cy="46" r="5" fill="#E95420"/>
  <circle cx="62" cy="46" r="5" fill="#772953"/>
  <circle cx="78" cy="46" r="5" fill="rgba(255,255,255,0.9)"/>
  <text x="96" y="50" font-family="Ubuntu, Arial, sans-serif" font-size="14" fill="#ffffff">输入法框架</text>
  <rect x="48" y="52" rx="8" ry="8" width="224" height="52" fill="rgba(255,255,255,0.22)" stroke="rgba(255,255,255,0.35)" stroke-width="1"/>
  <rect x="48" y="114" rx="8" ry="8" width="224" height="52" fill="rgba(255,255,255,0.22)" stroke="rgba(255,255,255,0.35)" stroke-width="1"/>
  <g fill="rgba(255,255,255,0.85)">
    <rect x="48" y="176" rx="6" ry="6" width="48" height="36"/>
    <rect x="102" y="176" rx="6" ry="6" width="48" height="36"/>
    <rect x="156" y="176" rx="6" ry="6" width="48" height="36"/>
    <rect x="210" y="176" rx="6" ry="6" width="62" height="36"/>
  </g>

  <rect x="0" y="0" width="900" height="383" fill="url(#shine)"/>

  <text x="450" y="132" font-family="Ubuntu, Arial, sans-serif" font-size="36" text-anchor="middle" fill="#ffffff" font-weight="700">Ubuntu 输入法指南</text>
  <text x="450" y="178" font-family="Ubuntu, Arial, sans-serif" font-size="24" text-anchor="middle" fill="#ffffff" font-weight="600">Fcitx 5 + Rime 雾凇拼音</text>
  <text x="450" y="214" font-family="Ubuntu, Arial, sans-serif" font-size="16" text-anchor="middle" fill="rgba(255,255,255,0.9)">中文支持与配置 · 候选框、环境变量、字体避坑</text>

  

  <text x="40" y="300" font-family="Ubuntu, Arial, sans-serif" font-size="14" fill="#ffffff">中文支持</text>
  <text x="860" y="360" font-family="Ubuntu, Arial, sans-serif" font-size="12" text-anchor="end" fill="rgba(255,255,255,0.8)">2026-02-07</text>
</svg>
