<svg width="900" height="500" viewBox="0 0 900 500" xmlns="http://www.w3.org/2000/svg">
  <defs>
    <!-- 渐变背景 -->
    <linearGradient id="bgGradient" x1="0%" y1="0%" x2="100%" y2="100%">
      <stop offset="0%" style="stop-color:#0f172a;stop-opacity:1" />
      <stop offset="50%" style="stop-color:#1e293b;stop-opacity:1" />
      <stop offset="100%" style="stop-color:#0f172a;stop-opacity:1" />
    </linearGradient>
    
    <!-- 光晕效果 -->
    <radialGradient id="glow1" cx="50%" cy="50%" r="50%">
      <stop offset="0%" style="stop-color:#3b82f6;stop-opacity:0.3" />
      <stop offset="100%" style="stop-color:#3b82f6;stop-opacity:0" />
    </radialGradient>
    
    <radialGradient id="glow2" cx="50%" cy="50%" r="50%">
      <stop offset="0%" style="stop-color:#8b5cf6;stop-opacity:0.3" />
      <stop offset="100%" style="stop-color:#8b5cf6;stop-opacity:0" />
    </radialGradient>
    
    <radialGradient id="glow3" cx="50%" cy="50%" r="50%">
      <stop offset="0%" style="stop-color:#10b981;stop-opacity:0.3" />
      <stop offset="100%" style="stop-color:#10b981;stop-opacity:0" />
    </radialGradient>
    
    <!-- 文字渐变 -->
    <linearGradient id="textGradient" x1="0%" y1="0%" x2="100%" y2="0%">
      <stop offset="0%" style="stop-color:#60a5fa" />
      <stop offset="50%" style="stop-color:#a78bfa" />
      <stop offset="100%" style="stop-color:#34d399" />
    </linearGradient>
  </defs>
  
  <!-- 背景 -->
  <rect width="900" height="500" fill="url(#bgGradient)"/>
  
  <!-- 装饰性网格 -->
  <pattern id="grid" width="40" height="40" patternUnits="userSpaceOnUse">
    <path d="M 40 0 L 0 0 0 40" fill="none" stroke="#1e293b" stroke-width="0.5"/>
  </pattern>
  <rect width="900" height="500" fill="url(#grid)"/>
  
  <!-- 三个AI助手的光晕 -->
  <circle cx="200" cy="250" r="120" fill="url(#glow1)"/>
  <circle cx="450" cy="250" r="120" fill="url(#glow2)"/>
  <circle cx="700" cy="250" r="120" fill="url(#glow3)"/>
  
  <!-- Cursor 图标区域 -->
  <g transform="translate(200, 200)">
    <!-- 外圈 -->
    <circle cx="0" cy="0" r="50" fill="none" stroke="#3b82f6" stroke-width="3"/>
    <!-- 内部符号 -->
    <path d="M-20 -20 L0 0 L-20 20" fill="none" stroke="#3b82f6" stroke-width="4" stroke-linecap="round" stroke-linejoin="round"/>
    <line x1="5" y1="-25" x2="5" y2="25" stroke="#3b82f6" stroke-width="4" stroke-linecap="round"/>
    <!-- 标签 -->
    <text x="0" y="75" text-anchor="middle" fill="#3b82f6" font-family="Arial, sans-serif" font-size="16" font-weight="bold">Cursor</text>
  </g>
  
  <!-- Copilot 图标区域 -->
  <g transform="translate(450, 200)">
    <!-- 外圈 -->
    <circle cx="0" cy="0" r="50" fill="none" stroke="#8b5cf6" stroke-width="3"/>
    <!-- 内部符号 - 飞机/助手 -->
    <path d="M-25 -10 L25 0 L-25 10 L-15 0 Z" fill="#8b5cf6"/>
    <circle cx="0" cy="0" r="8" fill="#8b5cf6"/>
    <!-- 标签 -->
    <text x="0" y="75" text-anchor="middle" fill="#8b5cf6" font-family="Arial, sans-serif" font-size="16" font-weight="bold">Copilot</text>
  </g>
  
  <!-- Claude 图标区域 -->
  <g transform="translate(700, 200)">
    <!-- 外圈 -->
    <circle cx="0" cy="0" r="50" fill="none" stroke="#10b981" stroke-width="3"/>
    <!-- 内部符号 - 六边形 -->
    <polygon points="0,-30 26,-15 26,15 0,30 -26,15 -26,-15" fill="none" stroke="#10b981" stroke-width="3"/>
    <text x="0" y="8" text-anchor="middle" fill="#10b981" font-family="Arial, sans-serif" font-size="20" font-weight="bold">C</text>
    <!-- 标签 -->
    <text x="0" y="75" text-anchor="middle" fill="#10b981" font-family="Arial, sans-serif" font-size="16" font-weight="bold">Claude</text>
  </g>
  
  <!-- VS 符号 -->
  <text x="325" y="260" text-anchor="middle" fill="#64748b" font-family="Arial, sans-serif" font-size="24" font-weight="bold">VS</text>
  <text x="575" y="260" text-anchor="middle" fill="#64748b" font-family="Arial, sans-serif" font-size="24" font-weight="bold">VS</text>
  
  <!-- 主标题 -->
  <text x="450" y="360" text-anchor="middle" fill="url(#textGradient)" font-family="Arial, sans-serif" font-size="42" font-weight="bold">AI编程助手终极横评</text>
  
  <!-- 副标题 -->
  <text x="450" y="400" text-anchor="middle" fill="#94a3b8" font-family="Arial, sans-serif" font-size="20">2026年开发者效率工具选型指南</text>
  
  <!-- 底部标签 -->
  <g transform="translate(450, 450)">
    <rect x="-60" y="-12" width="120" height="24" rx="12" fill="#1e293b" stroke="#3b82f6" stroke-width="1"/>
    <text x="0" y="4" text-anchor="middle" fill="#3b82f6" font-family="Arial, sans-serif" font-size="12">AppTalks出品</text>
  </g>
  
  <!-- 装饰性代码元素 -->
  <g opacity="0.3">
    <text x="50" y="100" fill="#475569" font-family="monospace" font-size="12">function AI() {</text>
    <text x="50" y="120" fill="#475569" font-family="monospace" font-size="12">  return efficiency;</text>
    <text x="50" y="140" fill="#475569" font-family="monospace" font-size="12">}</text>
    
    <text x="750" y="400" fill="#475569" font-family="monospace" font-size="12">const future = AI();</text>
    <text x="750" y="420" fill="#475569" font-family="monospace" font-size="12">// 2026</text>
  </g>
  
  <!-- 装饰性圆点 -->
  <circle cx="100" cy="450" r="3" fill="#3b82f6" opacity="0.5"/>
  <circle cx="120" cy="450" r="3" fill="#8b5cf6" opacity="0.5"/>
  <circle cx="140" cy="450" r="3" fill="#10b981" opacity="0.5"/>
  
  <circle cx="760" cy="450" r="3" fill="#10b981" opacity="0.5"/>
  <circle cx="780" cy="450" r="3" fill="#8b5cf6" opacity="0.5"/>
  <circle cx="800" cy="450" r="3" fill="#3b82f6" opacity="0.5"/>
</svg>