<svg xmlns="http://www.w3.org/2000/svg" viewBox="0 0 900 500" width="900" height="500">
  <defs>
    <!-- 背景渐变 -->
    <linearGradient id="bgGrad" x1="0%" y1="0%" x2="100%" y2="100%">
      <stop offset="0%" style="stop-color:#0d1117"/>
      <stop offset="50%" style="stop-color:#161b22"/>
      <stop offset="100%" style="stop-color:#0d1117"/>
    </linearGradient>
    
    <!-- GitHub黑渐变 -->
    <linearGradient id="githubGrad" x1="0%" y1="0%" x2="100%" y2="100%">
      <stop offset="0%" style="stop-color:#30363d"/>
      <stop offset="100%" style="stop-color:#21262d"/>
    </linearGradient>
    
    <!-- 警告橙渐变 -->
    <linearGradient id="warningGrad" x1="0%" y1="0%" x2="100%" y2="0%">
      <stop offset="0%" style="stop-color:#f97316"/>
      <stop offset="100%" style="stop-color:#fb923c"/>
    </linearGradient>
    
    <!-- 危险红渐变 -->
    <linearGradient id="dangerGrad" x1="0%" y1="0%" x2="100%" y2="0%">
      <stop offset="0%" style="stop-color:#ef4444"/>
      <stop offset="100%" style="stop-color:#f87171"/>
    </linearGradient>
    
    <!-- 蓝色渐变 -->
    <linearGradient id="blueGrad" x1="0%" y1="0%" x2="100%" y2="0%">
      <stop offset="0%" style="stop-color:#3b82f6"/>
      <stop offset="100%" style="stop-color:#60a5fa"/>
    </linearGradient>
    
    <!-- 紫色渐变 -->
    <linearGradient id="purpleGrad" x1="0%" y1="0%" x2="100%" y2="0%">
      <stop offset="0%" style="stop-color:#8b5cf6"/>
      <stop offset="100%" style="stop-color:#a78bfa"/>
    </linearGradient>
    
    <!-- 绿色渐变 -->
    <linearGradient id="greenGrad" x1="0%" y1="0%" x2="100%" y2="0%">
      <stop offset="0%" style="stop-color:#22c55e"/>
      <stop offset="100%" style="stop-color:#4ade80"/>
    </linearGradient>
    
    <!-- 发光效果 -->
    <filter id="glow" x="-50%" y="-50%" width="200%" height="200%">
      <feGaussianBlur stdDeviation="4" result="blur"/>
      <feMerge>
        <feMergeNode in="blur"/>
        <feMergeNode in="SourceGraphic"/>
      </feMerge>
    </filter>
    
    <filter id="softGlow" x="-50%" y="-50%" width="200%" height="200%">
      <feGaussianBlur stdDeviation="8" result="blur"/>
      <feMerge>
        <feMergeNode in="blur"/>
        <feMergeNode in="SourceGraphic"/>
      </feMerge>
    </filter>

    <!-- 网格图案 -->
    <pattern id="gridPattern" width="30" height="30" patternUnits="userSpaceOnUse">
      <path d="M 30 0 L 0 0 0 30" fill="none" stroke="#ffffff" stroke-width="0.3" opacity="0.03"/>
    </pattern>
    
    <!-- 二进制流装饰 -->
    <pattern id="binaryPattern" width="60" height="20" patternUnits="userSpaceOnUse">
      <text x="0" y="14" font-family="monospace" font-size="9" fill="#ffffff" opacity="0.04">01001</text>
      <text x="35" y="14" font-family="monospace" font-size="9" fill="#ffffff" opacity="0.03">10010</text>
    </pattern>
  </defs>
  
  <!-- 背景 -->
  <rect width="900" height="500" fill="url(#bgGrad)"/>
  <rect width="900" height="500" fill="url(#gridPattern)"/>
  
  <!-- 顶部紧急条带 -->
  <rect x="0" y="0" width="900" height="42" fill="#f97316" opacity="0.92"/>
  <rect x="0" y="42" width="900" height="2" fill="#fb923c"/>
  
  <!-- 紧急条文字 -->
  <g filter="url(#glow)">
    <text x="450" y="28" text-anchor="middle" font-family="system-ui, -apple-system, sans-serif" font-size="15" font-weight="700" fill="#ffffff" letter-spacing="0.5">
      ⚡ AI Agent 压垮全球最大代码平台！GitHub 启动底层基础设施重构
    </text>
  </g>
  
  <!-- 主标题区域 -->
  <text x="450" y="88" text-anchor="middle" font-family="system-ui, -apple-system, sans-serif" font-size="32" font-weight="800" fill="#ffffff" letter-spacing="1.5">
    GitHub 被 AI Agent
  </text>
  <text x="450" y="128" text-anchor="middle" font-family="system-ui, -apple-system, sans-serif" font-size="32" font-weight="800" fill="#ffffff" letter-spacing="1.5">
    "淹 没" 了 ！
  </text>
  
  <!-- "淹没"特效：水波纹 + 警告高亮 -->
  <ellipse cx="545" cy="118" rx="58" ry="18" fill="#f97316" opacity="0.25" filter="url(#softGlow)"/>
  <text x="545" y="125" text-anchor="middle" font-family="system-ui, -apple-system, sans-serif" font-size="26" font-weight="800" fill="#f97316">"淹没"</text>
  
  <!-- 副标题 -->
  <text x="450" y="162" text-anchor="middle" font-family="system-ui, -apple-system, sans-serif" font-size="14" fill="#8b949e" letter-spacing="0.5">
    频发故障 · 30倍扩容需求 · 底层架构重构 · 开发者何去何从？
  </text>
  
  <!-- 三大核心数据卡片 -->
  <g transform="translate(55, 185)">
    <!-- 卡片1: 故障数据 -->
    <rect x="0" y="0" width="250" height="95" rx="10" fill="#161b22" stroke="#30363d" stroke-width="1.5"/>
    <rect x="0" y="0" width="250" height="4" rx="2" fill="url(#dangerGrad)"/>
    
    <circle cx="30" cy="35" r="16" fill="#ef4444" opacity="0.15"/>
    <text x="30" y="41" text-anchor="middle" font-size="18">⚠️</text>
    
    <text x="56" y="33" font-family="system-ui, sans-serif" font-size="13" font-weight="600" fill="#f87171">数月多次重大故障</text>
    <text x="30" y="60" font-family="system-ui, sans-serif" font-size="11" fill="#8b949e">· 4/23 合并队列异常</text>
    <text x="30" y="76" font-family="system-ui, sans-serif" font-size="11" fill="#8b949e">· 4/27 搜索系统崩溃</text>
    <text x="165" y="60" font-family="system-ui, sans-serif" font-size="11" fill="#8b949e">· 影响</text>
    <text x="195" y="60" font-family="system-ui, sans-serif" font-size="13" font-weight="700" fill="#f87171">658仓库</text>
    <text x="165" y="76" font-family="system-ui, sans-serif" font-size="11" fill="#8b949e">· 涉及</text>
    <text x="195" y="76" font-family="system-ui, sans-serif" font-size="13" font-weight="700" fill="#f87171">2092个PR</text>
  </g>
  
  <g transform="translate(325, 185)">
    <!-- 卡片2: 扩容数据 -->
    <rect x="0" y="0" width="250" height="95" rx="10" fill="#161b22" stroke="#30363d" stroke-width="1.5"/>
    <rect x="0" y="0" width="250" height="4" rx="2" fill="url(#warningGrad)"/>
    
    <circle cx="30" cy="35" r="16" fill="#f97316" opacity="0.15"/>
    <text x="30" y="41" text-anchor="middle" font-size="18">📈</text>
    
    <text x="56" y="33" font-family="system-ui, sans-serif" font-size="13" font-weight="600" fill="#fb923c">未来负载达当前</text>
    <text x="125" y="68" text-anchor="middle" font-family="system-ui, sans-serif" font-size="36" font-weight="800" fill="#f97316" filter="url(#glow)">30×</text>
    <text x="125" y="86" text-anchor="middle" font-family="system-ui, sans-serif" font-size="11" fill="#8b949e">GitHub 官方判断的扩容倍数</text>
  </g>
  
  <g transform="translate(595, 185)">
    <!-- 卡片3: 重构措施 -->
    <rect x="0" y="0" width="250" height="95" rx="10" fill="#161b22" stroke="#30363d" stroke-width="1.5"/>
    <rect x="0" y="0" width="250" height="4" rx="2" fill="url(#blueGrad)"/>
    
    <circle cx="30" cy="35" r="16" fill="#3b82f6" opacity="0.15"/>
    <text x="30" y="41" text-anchor="middle" font-size="18">🔧</text>
    
    <text x="56" y="33" font-family="system-ui, sans-serif" font-size="13" font-weight="600" fill="#60a5fa">五大重构措施启动</text>
    <text x="24" y="57" font-family="system-ui, sans-serif" font-size="10.5" fill="#8b949e">① 底层系统重写 ② Azure 弹性迁移</text>
    <text x="24" y="73" font-family="system-ui, sans-serif" font-size="10.5" fill="#8b949e">③ 核心服务隔离 ④ 多云架构部署</text>
    <text x="24" y="89" font-family="system-ui, sans-serif" font-size="10.5" fill="#8b949e">⑤ 沟通机制优化（优先级：可用性＞容量）</text>
  </g>
  
  <!-- 中部可视化：AI Agent 压力示意图 -->
  <g transform="translate(80, 298)">
    <!-- GitHub 平台基座 -->
    <rect x="150" y="40" width="520" height="65" rx="12" fill="url(#githubGrad)" stroke="#30363d" stroke-width="1.5"/>
    
    <!-- GitHub Logo 区域 -->
    <g transform="translate(175, 52)">
      <circle cx="18" cy="20" r="17" fill="#ffffff"/>
      <path d="M18 5 C11.4 5 6 10.4 6 17 c0 5.3 3.4 9.8 8.2 11.4 .6.1.8-.3.8-.6v-2c-3.3.7-4-1.6-4-1.6-.5-1.4-1.3-1.8-1.3-1.8-1.1-.7.1-.7.1-.7 1.2.1 1.8 1.2 1.8 1.2 1 1.8 2.7 1.3 3.4 1 .1-.8.4-1.3.7-1.6-2.6-.3-5.4-1.3-5.4-5.8 0-1.3.5-2.3 1.2-3.2-.1-.3-.5-1.5.1-3.2 0 0 1-.3 3.3 1.2 1-.3 2-.4 3-.5 1 .1 2 .2 3 .5 2.3-1.5 3.3-1.2 3.3-1.2.6 1.7.2 2.9.1 3.2.7.8 1.2 1.9 1.2 3.2 0 4.5-2.7 5.5-5.3 5.8.4.4.8 1.1.8 2v3.8c0 .3.2.7.8.6C28.6 26.8 32 22.3 32 17 32 10.4 26.6 5 18 5z" fill="#0d1117"/>
    </g>
    <text x="225" y="77" font-family="system-ui, sans-serif" font-size="15" font-weight="700" fill="#ffffff">GitHub Platform</text>
    
    <!-- 压力箭头群 - 从上方压向GitHub -->
    <!-- Agent 1 -->
    <g transform="translate(180, -5)">
      <rect x="0" y="0" width="85" height="34" rx="6" fill="#ef4444" opacity="0.15" stroke="#ef4444" stroke-width="1" stroke-dasharray="3,2"/>
      <text x="42" y="15" text-anchor="middle" font-family="system-ui, sans-serif" font-size="9" fill="#f87171" font-weight="600">🤖 Agent A</text>
      <text x="42" y="28" text-anchor="middle" font-family="system-ui, sans-serif" font-size="8" fill="#fca5a5">代码生成</text>
      <path d="M42 36 L42 44" stroke="#ef4444" stroke-width="2" marker-end="url(#arrowRed)"/>
      <polygon points="42,43 38,37 46,37" fill="#ef4444"/>
    </g>
    
    <!-- Agent 2 -->
    <g transform="translate(300, -5)">
      <rect x="0" y="0" width="85" height="34" rx="6" fill="#f97316" opacity="0.15" stroke="#f97316" stroke-width="1" stroke-dasharray="3,2"/>
      <text x="42" y="15" text-anchor="middle" font-family="system-ui, sans-serif" font-size="9" fill="#fb923c" font-weight="600">🤖 Agent B</text>
      <text x="42" y="28" text-anchor="middle" font-family="system-ui, sans-serif" font-size="8" fill="#fdba74">PR批量提交</text>
      <path d="M42 36 L42 44" stroke="#f97316" stroke-width="2"/>
      <polygon points="42,43 38,37 46,37" fill="#f97316"/>
    </g>
    
    <!-- Agent 3 -->
    <g transform="translate(420, -5)">
      <rect x="0" y="0" width="85" height="34" rx="6" fill="#eab308" opacity="0.15" stroke="#eab308" stroke-width="1" stroke-dasharray="3,2"/>
      <text x="42" y="15" text-anchor="middle" font-family="system-ui, sans-serif" font-size="9" fill="#fde047" font-weight="600">🤖 Agent C</text>
      <text x="42" y="28" text-anchor="middle" font-family="system-ui, sans-serif" font-size="8" fill="#fef08a">高频搜索</text>
      <path d="M42 36 L42 44" stroke="#eab308" stroke-width="2"/>
      <polygon points="42,43 38,37 46,37" fill="#eab308"/>
    </g>
    
    <!-- Agent 4 (溢出) -->
    <g transform="translate(540, -5)">
      <rect x="0" y="0" width="85" height="34" rx="6" fill="#8b5cf6" opacity="0.15" stroke="#8b5cf6" stroke-width="1" stroke-dasharray="3,2"/>
      <text x="42" y="15" text-anchor="middle" font-family="system-ui, sans-serif" font-size="9" fill="#a78bfa" font-weight="600">🤖 Agent D...</text>
      <text x="42" y="28" text-anchor="middle" font-family="system-ui, sans-serif" font-size="8" fill="#c4b5fd">CI/CD触发</text>
      <path d="M42 36 L42 44" stroke="#8b5cf6" stroke-width="2"/>
      <polygon points="42,43 38,37 46,37" fill="#8b5cf6"/>
    </g>
    
    <!-- 更多Agent指示器 -->
    <g transform="translate(660, 5)">
      <circle cx="20" cy="15" r="18" fill="#30363d" stroke="#484f58" stroke-width="1"/>
      <text x="20" y="19" text-anchor="middle" font-family="system-ui, sans-serif" font-size="16" font-weight="700" fill="#8b949e">+N</text>
    </g>
    
    <!-- 压力波纹效果 -->
    <ellipse cx="410" cy="72" rx="260" ry="20" fill="none" stroke="#ef4444" stroke-width="1" opacity="0.15" stroke-dasharray="4,6"/>
    <ellipse cx="410" cy="72" rx="280" ry="26" fill="none" stroke="#f97316" stroke-width="0.8" opacity="0.08" stroke-dasharray="4,6"/>
  </g>
  
  <!-- 双响炮时间线标签 -->
  <g transform="translate(70, 380)">
    <rect x="0" y="0" width="760" height="38" rx="8" fill="#21262d" stroke="#30363d" stroke-width="1"/>
    
    <!-- 时间线连接线 -->
    <line x1="120" y1="19" x2="640" y2="19" stroke="#30363d" stroke-width="2" stroke-dasharray="4,3"/>
    
    <!-- 节点1: 删库事件 -->
    <circle cx="120" cy="19" r="12" fill="#ef4444" filter="url(#glow)"/>
    <text x="120" y="23" text-anchor="middle" font-family="system-ui, sans-serif" font-size="10" font-weight="700" fill="#fff">4/24</text>
    <text x="120" y="-5" text-anchor="middle" font-family="system-ui, sans-serif" font-size="9" fill="#f87171" font-weight="600">9秒删库💥</text>
    
    <!-- 节点2: 搜索故障 -->
    <circle cx="310" cy="19" r="12" fill="#f97316" filter="url(#glow)"/>
    <text x="310" y="23" text-anchor="middle" font-family="system-ui, sans-serif" font-size="10" font-weight="700" fill="#fff">4/27</text>
    <text x="310" y="-5" text-anchor="middle" font-family="system-ui, sans-serif" font-size="9" fill="#fb923c" font-weight="600">搜索崩溃⚠️</text>
    
    <!-- 节点3: 重构宣布 (重点) -->
    <circle cx="500" cy="19" r="14" fill="#3b82f6" filter="url(#softGlow)"/>
    <text x="500" y="24" text-anchor="middle" font-family="system-ui, sans-serif" font-size="10" font-weight="700" fill="#fff">4/29</text>
    <rect x="430" y="-8" width="140" height="16" rx="4" fill="#3b82f6" opacity="0.2"/>
    <text x="500" y="3" text-anchor="middle" font-family="system-ui, sans-serif" font-size="9" fill="#60a5fa" font-weight="700">★ 架构重构!</text>
    
    <!-- 节点4: 本文 -->
    <circle cx="650" cy="19" r="12" fill="#22c55e" filter="url(#glow)"/>
    <text x="650" y="23" text-anchor="middle" font-family="system-ui, sans-serif" font-size="9" font-weight="700" fill="#fff">今日</text>
    <text x="650" y="-5" text-anchor="middle" font-family="system-ui, sans-serif" font-size="9" fill="#4ade80" font-weight="600">深度解析📝</text>
  </g>
  
  <!-- 底部行动标签栏 -->
  <g transform="translate(55, 435)">
    <!-- Tag 1 -->
    <rect x="0" y="0" width="155" height="42" rx="8" fill="#ef4444" opacity="0.12" stroke="#ef4444" stroke-width="1" stroke-opacity="0.4"/>
    <text x="77" y="17" text-anchor="middle" font-family="system-ui, sans-serif" font-size="11" font-weight="700" fill="#f87171">🔴 AI Agent 安全</text>
    <text x="77" y="33" text-anchor="middle" font-family="system-ui, sans-serif" font-size="9" fill="#fca5a5">双响炮深度分析</text>
    
    <!-- Tag 2 -->
    <rect x="168" y="0" width="155" height="42" rx="8" fill="#f97316" opacity="0.12" stroke="#f97316" stroke-width="1" stroke-opacity="0.4"/>
    <text x="245" y="17" text-anchor="middle" font-family="system-ui, sans-serif" font-size="11" font-weight="700" fill="#fb923c">🟠 基础设施危机</text>
    <text x="245" y="33" text-anchor="middle" font-family="system-ui, sans-serif" font-size="9" fill="#fdba74">30倍扩容挑战</text>
    
    <!-- Tag 3 -->
    <rect x="336" y="0" width="155" height="42" rx="8" fill="#3b82f6" opacity="0.12" stroke="#3b82f6" stroke-width="1" stroke-opacity="0.4"/>
    <text x="413" y="17" text-anchor="middle" font-family="system-ui, sans-serif" font-size="11" font-weight="700" fill="#60a5fa">🔵 5步行动指南</text>
    <text x="413" y="33" text-anchor="middle" font-family="system-ui, sans-serif" font-size="9" fill="#93c5fd">保护你的代码资产</text>
    
    <!-- Tag 4 -->
    <rect x="504" y="0" width="155" height="42" rx="8" fill="#8b5cf6" opacity="0.12" stroke="#8b5cf6" stroke-width="1" stroke-opacity="0.4"/>
    <text x="581" y="17" text-anchor="middle" font-family="system-ui, sans-serif" font-size="11" font-weight="700" fill="#a78bfa">🟣 行业趋势预判</text>
    <text x="581" y="33" text-anchor="middle" font-family="system-ui, sans-serif" font-size="9" fill="#c4b5fd">三种走向分析</text>
    
    <!-- Tag 5 -->
    <rect x="672" y="0" width="173" height="42" rx="8" fill="#22c55e" opacity="0.12" stroke="#22c55e" stroke-width="1" stroke-opacity="0.4"/>
    <text x="758" y="17" text-anchor="middle" font-family="system-ui, sans-serif" font-size="11" font-weight="700" fill="#4ade80">🟢 移动开发者必读</text>
    <text x="758" y="33" text-anchor="middle" font-family="system-ui, sans-serif" font-size="9" fill="#86efac">三层影响+应对方案</text>
  </g>
  
  <!-- 右上角装饰：警告三角 + 发光效果 -->
  <g transform="translate(835, 55) rotate(15)">
    <polygon points="0,-22 19,11 -19,11" fill="none" stroke="#f97316" stroke-width="2" opacity="0.3" filter="url(#softGlow)"/>
    <polygon points="0,-18 15.5,9 -15.5,9" fill="#f97316" opacity="0.15"/>
    <text x="0" y="6" text-anchor="middle" font-family="system-ui, sans-serif" font-size="14" font-weight="700" fill="#f97316">!</text>
  </g>
  
  <!-- 左下角二进制装饰 -->
  <text x="15" y="485" font-family="monospace" font-size="8" fill="#30363d" opacity="0.5">01101000 01110101 01100010 01110101 01101110 01110100</text>
  
  <!-- 右下角来源标注 -->
  <text x="885" y="485" text-anchor="end" font-family="system-ui, sans-serif" font-size="8" fill="#484f58" opacity="0.7">Source: IT之家/GitHub Blog | 2026.04.30</text>
  
  <!-- 装饰粒子 -->
  <circle cx="50" cy="90" r="2" fill="#f97316" opacity="0.3"/>
  <circle cx="850" cy="170" r="1.5" fill="#3b82f6" opacity="0.3"/>
  <circle cx="100" cy="290" r="1.5" fill="#8b5cf6" opacity="0.25"/>
  <circle cx="820" cy="350" r="2" fill="#ef4444" opacity="0.2"/>
  <circle cx="30" cy="400" r="1.5" fill="#22c55e" opacity="0.25"/>
  <circle cx="870" cy="450" r="1" fill="#f97316" opacity="0.3"/>
</svg>